<?xml version="1.0" encoding="UTF-8"?>
<svg width="128px" height="128px" viewBox="0 0 128 128" version="1.1" xmlns="http://www.w3.org/2000/svg" xmlns:xlink="http://www.w3.org/1999/xlink">
    <title>envato</title>
    <g id="Page-2" stroke="none" stroke-width="1" fill="none" fill-rule="evenodd">
        <g id="envato" fill-rule="nonzero">
            <circle id="Oval" fill="#FA6400" cx="64" cy="64" r="64"></circle>
            <path d="M83.0305,33.4702 C81.2233,32.4759 76.0472,33.0925 69.8272,34.9984 C58.9443,42.3619 49.7545,53.2116 49.1141,70.6346 C49.0001,71.0514 47.9254,70.5738 47.7104,70.4479 C44.7715,64.8733 43.6047,59.0034 46.0611,50.5328 C46.5173,49.7774 45.0215,48.8483 44.7539,49.1131 C44.2188,49.6428 41.9729,52.0133 40.4771,54.5706 C33.0815,67.2612 37.9198,83.5293 50.8556,90.6496 C53.9313,92.3445 57.3143,93.4231 60.8112,93.8239 C64.3081,94.2247 67.8506,93.9398 71.2363,92.9855 C74.622,92.0312 77.7846,90.4262 80.5436,88.2622 C83.3026,86.0981 85.6039,83.4173 87.3161,80.3729 C95.6505,65.6027 87.9127,36.1707 83.0305,33.4702 L83.0305,33.4702 Z" id="Path" fill="#FFFFFF"></path>
        </g>
    </g>
</svg>